# Blender 4.2.0
# www.blender.org
mtllib TW SHELF.mtl
o 4_shelf
v 0.720000 0.800000 -1.250000
v 0.720000 0.840000 -1.250000
v 0.720000 0.800000 1.250000
v 0.720000 0.840000 1.250000
v -0.804699 0.800000 -1.250000
v -0.804699 0.840000 -1.250000
v -0.804699 0.800000 1.250000
v -0.804699 0.840000 1.250000
v 0.673722 0.840000 -1.250000
v 0.673722 0.800000 1.250000
v 0.673722 0.840000 1.250000
v 0.673722 0.800000 -1.250000
v 0.673722 1.134556 1.250000
v 0.720000 1.134556 1.250000
v 0.720000 1.134556 -1.250000
v 0.673722 1.134556 -1.250000
v 0.720000 2.188406 -1.250000
v 0.720000 2.228406 -1.250000
v 0.720000 2.188406 1.250000
v 0.720000 2.228406 1.250000
v -0.804699 2.188406 -1.250000
v -0.804699 2.228406 -1.250000
v -0.804699 2.188406 1.250000
v -0.804699 2.228406 1.250000
v 0.673722 2.228406 -1.250000
v 0.673722 2.188406 1.250000
v 0.673722 2.228406 1.250000
v 0.673722 2.188406 -1.250000
v 0.673722 2.522962 1.250000
v 0.720000 2.522962 1.250000
v 0.720000 2.522962 -1.250000
v 0.673722 2.522962 -1.250000
v 0.720000 3.576813 -1.250000
v 0.720000 3.616812 -1.250000
v 0.720000 3.576813 1.250000
v 0.720000 3.616812 1.250000
v -0.804699 3.576813 -1.250000
v -0.804699 3.616812 -1.250000
v -0.804699 3.576813 1.250000
v -0.804699 3.616812 1.250000
v 0.673722 3.616812 -1.250000
v 0.673722 3.576813 1.250000
v 0.673722 3.616812 1.250000
v 0.673722 3.576813 -1.250000
v 0.673722 3.911368 1.250000
v 0.720000 3.911368 1.250000
v 0.720000 3.911368 -1.250000
v 0.673722 3.911368 -1.250000
v 0.720000 4.965219 -1.250000
v 0.720000 5.005219 -1.250000
v 0.720000 4.965219 1.250000
v 0.720000 5.005219 1.250000
v -0.804699 4.965219 -1.250000
v -0.804699 5.005219 -1.250000
v -0.804699 4.965219 1.250000
v -0.804699 5.005219 1.250000
v 0.673722 5.005219 -1.250000
v 0.673722 4.965219 1.250000
v 0.673722 5.005219 1.250000
v 0.673722 4.965219 -1.250000
v 0.673722 5.299775 1.250000
v 0.720000 5.299775 1.250000
v 0.720000 5.299775 -1.250000
v 0.673722 5.299775 -1.250000
v 0.720000 6.353625 -1.250000
v 0.720000 6.393625 -1.250000
v 0.720000 6.353625 1.250000
v 0.720000 6.393625 1.250000
v -0.804699 6.353625 -1.250000
v -0.804699 6.393625 -1.250000
v -0.804699 6.353625 1.250000
v -0.804699 6.393625 1.250000
v 0.673722 6.393625 -1.250000
v 0.673722 6.353625 1.250000
v 0.673722 6.393625 1.250000
v 0.673722 6.353625 -1.250000
v 0.673722 6.688181 1.250000
v 0.720000 6.688181 1.250000
v 0.720000 6.688181 -1.250000
v 0.673722 6.688181 -1.250000
v 0.720000 7.742032 -1.250000
v 0.720000 7.782032 -1.250000
v 0.720000 7.742032 1.250000
v 0.720000 7.782032 1.250000
v -0.804699 7.742032 -1.250000
v -0.804699 7.782032 -1.250000
v -0.804699 7.742032 1.250000
v -0.804699 7.782032 1.250000
v 0.673722 7.782032 -1.250000
v 0.673722 7.742032 1.250000
v 0.673722 7.782032 1.250000
v 0.673722 7.742032 -1.250000
v 0.673722 8.076588 1.250000
v 0.720000 8.076588 1.250000
v 0.720000 8.076588 -1.250000
v 0.673722 8.076588 -1.250000
v 0.720000 0.800000 1.250000
v 0.720000 0.800000 -1.250000
v 0.720000 1.134556 1.250000
v 0.720000 1.134556 -1.250000
v 0.720000 2.188406 1.250000
v 0.720000 2.188406 -1.250000
v 0.720000 2.522962 1.250000
v 0.720000 2.522962 -1.250000
v 0.720000 3.576813 1.250000
v 0.720000 3.576813 -1.250000
v 0.720000 3.911368 1.250000
v 0.720000 3.911368 -1.250000
v 0.720000 4.965219 1.250000
v 0.720000 4.965219 -1.250000
v 0.720000 5.299775 1.250000
v 0.720000 5.299775 -1.250000
v 0.720000 6.353625 1.250000
v 0.720000 6.353625 -1.250000
v 0.720000 6.688181 1.250000
v 0.720000 6.688181 -1.250000
v 0.720000 7.742031 1.250000
v 0.720000 7.742031 -1.250000
v 0.720000 8.076587 1.250000
v 0.720000 8.076587 -1.250000
v 0.800000 0.800000 -1.250000
v 0.800000 -0.800000 -1.250000
v 0.800000 0.800000 1.250000
v 0.800000 -0.800000 1.250000
v -0.800000 0.800000 -1.250000
v -0.800000 -0.800000 -1.250000
v -0.800000 0.800000 1.250000
v -0.800000 -0.800000 1.250000
v 0.801035 -0.777363 1.312479
v 0.800103 -0.777363 -1.312500
v 0.800044 0.839964 1.252652
v 0.800040 0.836800 -1.274494
v -0.800000 -0.799837 1.238000
v -0.800000 9.190000 1.238000
v -0.800000 -0.799837 1.288000
v -0.800000 9.190000 1.288000
v 0.800000 -0.799837 1.238000
v 0.800000 -0.799837 1.288000
v -0.800000 8.757485 1.238000
v -0.800000 8.757485 1.288000
v 0.800000 8.757485 1.288000
v 0.800000 8.757485 1.238000
v 0.090235 -0.799837 1.288000
v 0.090235 9.190000 1.288000
v 0.090235 -0.799837 1.238000
v 0.090235 9.190000 1.238000
v 0.090235 8.757485 1.238000
v 0.090235 8.757485 1.288000
v 0.800000 8.757485 1.238000
v 0.271938 9.190000 1.238000
v 0.794625 8.819037 1.238000
v 0.778610 8.879337 1.238000
v 0.752280 8.937158 1.238000
v 0.716172 8.991320 1.238000
v 0.671021 9.040721 1.238000
v 0.617745 9.084357 1.238000
v 0.557430 9.121340 1.238000
v 0.491303 9.150913 1.238000
v 0.420710 9.172480 1.238000
v 0.347089 9.185597 1.238000
v 0.271938 9.190000 1.288000
v 0.800000 8.757485 1.288000
v 0.347089 9.185597 1.288000
v 0.420710 9.172480 1.288000
v 0.491303 9.150913 1.288000
v 0.557430 9.121340 1.288000
v 0.617745 9.084357 1.288000
v 0.671021 9.040721 1.288000
v 0.716172 8.991320 1.288000
v 0.752280 8.937158 1.288000
v 0.778610 8.879337 1.288000
v 0.794625 8.819037 1.288000
v -0.800000 -0.799837 -1.287000
v -0.800000 9.190000 -1.287000
v -0.800000 -0.799837 -1.237000
v -0.800000 9.190000 -1.237000
v 0.800000 -0.799837 -1.287000
v 0.800000 -0.799837 -1.237000
v -0.800000 8.757485 -1.287000
v -0.800000 8.757485 -1.237000
v 0.800000 8.757485 -1.237000
v 0.800000 8.757485 -1.287000
v 0.090235 -0.799837 -1.237000
v 0.090235 9.190000 -1.237000
v 0.090235 -0.799837 -1.287000
v 0.090235 9.190000 -1.287000
v 0.090235 8.757485 -1.287000
v 0.090235 8.757485 -1.237000
v 0.800000 8.757485 -1.287000
v 0.271938 9.190000 -1.287000
v 0.794625 8.819037 -1.287000
v 0.778610 8.879337 -1.287000
v 0.752280 8.937158 -1.287000
v 0.716172 8.991320 -1.287000
v 0.671021 9.040721 -1.287000
v 0.617745 9.084357 -1.287000
v 0.557430 9.121340 -1.287000
v 0.491303 9.150913 -1.287000
v 0.420710 9.172480 -1.287000
v 0.347089 9.185597 -1.287000
v 0.271938 9.190000 -1.237000
v 0.800000 8.757485 -1.237000
v 0.347089 9.185597 -1.237000
v 0.420710 9.172480 -1.237000
v 0.491303 9.150913 -1.237000
v 0.557430 9.121340 -1.237000
v 0.617745 9.084357 -1.237000
v 0.671021 9.040721 -1.237000
v 0.716172 8.991320 -1.237000
v 0.752280 8.937158 -1.237000
v 0.778610 8.879337 -1.237000
v 0.794625 8.819037 -1.237000
v 0.800045 -0.799988 -1.288750
v -0.800055 -0.799988 -1.288750
v 0.800045 7.712439 -1.288749
v -0.800055 7.712439 -1.288750
v -0.802758 -0.807352 1.295500
v 0.802244 -0.807353 1.295500
v -0.802758 7.712440 1.295500
v 0.802244 7.712440 1.295500
v -0.711850 9.533115 1.013912
v -0.711850 9.533116 -1.013912
v -0.711850 10.726893 1.013912
v -0.711850 10.726894 -1.013912
v -0.715000 -0.796099 -1.288000
v -0.715000 11.278291 -1.288000
v -0.805000 -0.796099 -1.288000
v -0.805000 11.278291 -1.288000
v -0.715000 -0.796099 1.288000
v -0.715000 11.278291 1.288000
v -0.805000 -0.796099 1.288000
v -0.805000 11.278291 1.288000
vn -0.0000 -1.0000 -0.0000
vn -0.0000 -0.0000 1.0000
vn -1.0000 -0.0000 -0.0000
vn -0.0000 -0.0000 -1.0000
vn 1.0000 -0.0000 -0.0000
vn -0.0000 1.0000 -0.0000
vn -1.0000 -0.0003 0.0002
vn 0.0585 0.9983 -0.0000
vn 0.1754 0.9845 -0.0000
vn 0.2922 0.9564 -0.0000
vn 0.4083 0.9129 -0.0000
vn 0.5227 0.8525 -0.0000
vn 0.6336 0.7736 -0.0000
vn 0.7381 0.6746 -0.0000
vn 0.8321 0.5547 -0.0000
vn 0.9101 0.4144 -0.0000
vn 0.9665 0.2567 -0.0000
vn 0.9962 0.0870 -0.0000
vn 0.8320 0.5547 -0.0000
vt 0.633034 0.500000
vt 0.875000 0.500000
vt 0.875000 0.750000
vt 0.633034 0.750000
vt 0.375000 0.758034
vt 0.625000 0.758034
vt 0.625000 1.000000
vt 0.375000 1.000000
vt 0.375000 0.000000
vt 0.625000 0.000000
vt 0.625000 0.250000
vt 0.375000 0.250000
vt 0.375000 0.491966
vt 0.375000 0.500000
vt 0.625000 0.500000
vt 0.625000 0.750000
vt 0.375000 0.750000
vt 0.625000 0.491966
vt 0.125000 0.500000
vt 0.366966 0.500000
vt 0.366966 0.750000
vt 0.125000 0.750000
vt 0.000000 0.000000
vt 1.000000 0.000000
vt 1.000000 1.000000
vt 0.000000 1.000000
vt 0.613472 0.000000
vt 0.613472 0.250000
vt 0.613472 0.750000
vt 0.615113 0.750840
vt 0.616720 0.753342
vt 0.618261 0.757456
vt 0.619705 0.763098
vt 0.621021 0.770153
vt 0.622184 0.778477
vt 0.623170 0.787902
vt 0.623958 0.798234
vt 0.624533 0.809264
vt 0.624883 0.820767
vt 0.625000 0.832510
vt 0.625000 0.860901
vt 0.613472 0.860901
vt 0.613472 1.000000
vt 0.264099 0.500000
vt 0.264099 0.750000
vt 0.735901 0.500000
vt 0.735901 0.750000
vt 0.375000 0.860901
vt 0.613472 0.500000
vt 0.375000 0.389099
vt 0.613472 0.389099
vt 0.625000 0.389099
vt 0.625000 0.417490
vt 0.624883 0.429233
vt 0.624533 0.440736
vt 0.623958 0.451766
vt 0.623170 0.462098
vt 0.622184 0.471523
vt 0.621021 0.479847
vt 0.619705 0.486902
vt 0.618261 0.492544
vt 0.616720 0.496658
vt 0.615113 0.499160
vt 0.707510 0.500000
vt 0.707510 0.750000
vt 0.695767 0.750000
vt 0.695767 0.500000
vt 0.684264 0.750000
vt 0.684264 0.500000
vt 0.673234 0.750000
vt 0.673234 0.500000
vt 0.662902 0.750000
vt 0.662902 0.500000
vt 0.653477 0.750000
vt 0.653477 0.500000
vt 0.621021 0.750000
vt 0.621021 0.500000
vt 0.619705 0.750000
vt 0.619705 0.500000
vt 0.618261 0.750000
vt 0.618261 0.500000
vt 0.616720 0.750000
vt 0.616720 0.500000
vt 0.615113 0.750000
vt 0.615113 0.500000
s 0
usemtl Material.001
f 12/1/1 10/4/1 7/3/1 5/2/1
f 11/5/2 8/8/2 7/7/2 10/6/2
f 8/9/3 6/12/3 5/11/3 7/10/3
f 9/13/4 16/13/4 15/14/4 2/14/4
f 2/14/5 4/17/5 3/16/5 1/15/5
f 9/13/4 2/14/4 1/15/4 12/18/4
f 6/12/4 9/13/4 12/18/4 5/11/4
f 6/19/6 8/22/6 11/21/6 9/20/6
f 4/17/2 11/5/2 10/6/2 3/16/2
f 1/15/1 3/16/1 10/4/1 12/1/1
f 16/20/6 13/21/6 14/17/6 15/14/6
f 4/17/2 14/17/2 13/5/2 11/5/2
f 11/21/3 13/21/3 16/20/3 9/20/3
f 2/14/5 15/14/5 14/17/5 4/17/5
f 28/1/1 26/4/1 23/3/1 21/2/1
f 27/5/2 24/8/2 23/7/2 26/6/2
f 24/9/3 22/12/3 21/11/3 23/10/3
f 25/13/4 32/13/4 31/14/4 18/14/4
f 18/14/5 20/17/5 19/16/5 17/15/5
f 25/13/4 18/14/4 17/15/4 28/18/4
f 22/12/4 25/13/4 28/18/4 21/11/4
f 22/19/6 24/22/6 27/21/6 25/20/6
f 20/17/2 27/5/2 26/6/2 19/16/2
f 17/15/1 19/16/1 26/4/1 28/1/1
f 32/20/6 29/21/6 30/17/6 31/14/6
f 20/17/2 30/17/2 29/5/2 27/5/2
f 27/21/3 29/21/3 32/20/3 25/20/3
f 18/14/5 31/14/5 30/17/5 20/17/5
f 44/1/1 42/4/1 39/3/1 37/2/1
f 43/5/2 40/8/2 39/7/2 42/6/2
f 40/9/3 38/12/3 37/11/3 39/10/3
f 41/13/4 48/13/4 47/14/4 34/14/4
f 34/14/5 36/17/5 35/16/5 33/15/5
f 41/13/4 34/14/4 33/15/4 44/18/4
f 38/12/4 41/13/4 44/18/4 37/11/4
f 38/19/6 40/22/6 43/21/6 41/20/6
f 36/17/2 43/5/2 42/6/2 35/16/2
f 33/15/1 35/16/1 42/4/1 44/1/1
f 48/20/6 45/21/6 46/17/6 47/14/6
f 36/17/2 46/17/2 45/5/2 43/5/2
f 43/21/3 45/21/3 48/20/3 41/20/3
f 34/14/5 47/14/5 46/17/5 36/17/5
f 60/1/1 58/4/1 55/3/1 53/2/1
f 59/5/2 56/8/2 55/7/2 58/6/2
f 56/9/3 54/12/3 53/11/3 55/10/3
f 57/13/4 64/13/4 63/14/4 50/14/4
f 50/14/5 52/17/5 51/16/5 49/15/5
f 57/13/4 50/14/4 49/15/4 60/18/4
f 54/12/4 57/13/4 60/18/4 53/11/4
f 54/19/6 56/22/6 59/21/6 57/20/6
f 52/17/2 59/5/2 58/6/2 51/16/2
f 49/15/1 51/16/1 58/4/1 60/1/1
f 64/20/6 61/21/6 62/17/6 63/14/6
f 52/17/2 62/17/2 61/5/2 59/5/2
f 59/21/3 61/21/3 64/20/3 57/20/3
f 50/14/5 63/14/5 62/17/5 52/17/5
f 76/1/1 74/4/1 71/3/1 69/2/1
f 75/5/2 72/8/2 71/7/2 74/6/2
f 72/9/3 70/12/3 69/11/3 71/10/3
f 73/13/4 80/13/4 79/14/4 66/14/4
f 66/14/5 68/17/5 67/16/5 65/15/5
f 73/13/4 66/14/4 65/15/4 76/18/4
f 70/12/4 73/13/4 76/18/4 69/11/4
f 70/19/6 72/22/6 75/21/6 73/20/6
f 68/17/2 75/5/2 74/6/2 67/16/2
f 65/15/1 67/16/1 74/4/1 76/1/1
f 80/20/6 77/21/6 78/17/6 79/14/6
f 68/17/2 78/17/2 77/5/2 75/5/2
f 75/21/3 77/21/3 80/20/3 73/20/3
f 66/14/5 79/14/5 78/17/5 68/17/5
f 92/1/1 90/4/1 87/3/1 85/2/1
f 91/5/2 88/8/2 87/7/2 90/6/2
f 88/9/3 86/12/3 85/11/3 87/10/3
f 89/13/4 96/13/4 95/14/4 82/14/4
f 82/14/5 84/17/5 83/16/5 81/15/5
f 89/13/4 82/14/4 81/15/4 92/18/4
f 86/12/4 89/13/4 92/18/4 85/11/4
f 86/19/6 88/22/6 91/21/6 89/20/6
f 84/17/2 91/5/2 90/6/2 83/16/2
f 81/15/1 83/16/1 90/4/1 92/1/1
f 96/20/6 93/21/6 94/17/6 95/14/6
f 84/17/2 94/17/2 93/5/2 91/5/2
f 91/21/3 93/21/3 96/20/3 89/20/3
f 82/14/5 95/14/5 94/17/5 84/17/5
f 121/15/1 123/16/1 127/3/1 125/2/1
f 124/17/4 128/8/4 127/7/4 123/16/4
f 128/9/5 126/12/5 125/11/5 127/10/5
f 126/19/6 128/22/6 124/17/6 122/14/6
f 122/14/3 124/17/3 123/16/3 121/15/3
f 126/12/2 122/14/2 121/15/2 125/11/2
f 139/27/3 140/28/3 136/11/3 134/10/3
f 142/29/4 147/42/4 146/41/4 150/40/4 160/39/4 159/38/4 158/37/4 157/36/4 156/35/4 155/34/4 154/33/4 153/32/4 152/31/4 151/30/4 149/29/4
f 147/42/4 139/43/4 134/7/4 146/41/4
f 143/44/1 145/45/1 137/17/1 138/14/1
f 144/46/6 146/47/6 134/3/6 136/2/6
f 145/48/4 133/8/4 139/43/4 147/42/4
f 138/14/5 137/17/5 142/29/5 141/49/5
f 143/50/2 138/14/2 141/49/2 148/51/2
f 133/9/3 135/12/3 140/28/3 139/27/3
f 135/12/2 143/50/2 148/51/2 140/28/2
f 137/17/4 145/48/4 147/42/4 142/29/4
f 141/49/1 142/29/1 149/29/1 162/49/1
f 135/19/1 133/22/1 145/45/1 143/44/1
f 148/51/2 141/49/2 162/49/2 172/63/2 171/62/2 170/61/2 169/60/2 168/59/2 167/58/2 166/57/2 165/56/2 164/55/2 163/54/2 161/53/2 144/52/2
f 140/28/2 148/51/2 144/52/2 136/11/2
f 161/64/8 163/67/8 160/66/8 150/65/8
f 163/67/9 164/69/9 159/68/9 160/66/9
f 164/69/10 165/71/10 158/70/10 159/68/10
f 165/71/11 166/73/11 157/72/11 158/70/11
f 166/73/12 167/75/12 156/74/12 157/72/12
f 167/75/13 168/77/13 155/76/13 156/74/13
f 168/77/14 169/79/14 154/78/14 155/76/14
f 169/79/15 170/81/15 153/80/15 154/78/15
f 170/81/16 171/83/16 152/82/16 153/80/16
f 171/83/17 172/85/17 151/84/17 152/82/17
f 172/85/18 162/49/18 149/29/18 151/84/18
f 161/64/6 150/65/6 146/47/6 144/46/6
f 179/27/3 180/28/3 176/11/3 174/10/3
f 182/29/4 187/42/4 186/41/4 190/40/4 200/39/4 199/38/4 198/37/4 197/36/4 196/35/4 195/34/4 194/33/4 193/32/4 192/31/4 191/30/4 189/29/4
f 187/42/4 179/43/4 174/7/4 186/41/4
f 183/44/1 185/45/1 177/17/1 178/14/1
f 184/46/6 186/47/6 174/3/6 176/2/6
f 185/48/4 173/8/4 179/43/4 187/42/4
f 178/14/5 177/17/5 182/29/5 181/49/5
f 183/50/2 178/14/2 181/49/2 188/51/2
f 173/9/3 175/12/3 180/28/3 179/27/3
f 175/12/2 183/50/2 188/51/2 180/28/2
f 177/17/4 185/48/4 187/42/4 182/29/4
f 181/49/1 182/29/1 189/29/1 202/49/1
f 175/19/1 173/22/1 185/45/1 183/44/1
f 188/51/2 181/49/2 202/49/2 212/63/2 211/62/2 210/61/2 209/60/2 208/59/2 207/58/2 206/57/2 205/56/2 204/55/2 203/54/2 201/53/2 184/52/2
f 180/28/2 188/51/2 184/52/2 176/11/2
f 201/64/8 203/67/8 200/66/8 190/65/8
f 203/67/9 204/69/9 199/68/9 200/66/9
f 204/69/10 205/71/10 198/70/10 199/68/10
f 205/71/11 206/73/11 197/72/11 198/70/11
f 206/73/12 207/75/12 196/74/12 197/72/12
f 207/75/13 208/77/13 195/76/13 196/74/13
f 208/77/14 209/79/14 194/78/14 195/76/14
f 209/79/19 210/81/19 193/80/19 194/78/19
f 210/81/16 211/83/16 192/82/16 193/80/16
f 211/83/17 212/85/17 191/84/17 192/82/17
f 212/85/18 202/49/18 189/29/18 191/84/18
f 201/64/6 190/65/6 186/47/6 184/46/6
s 1
f 225/9/4 227/12/4 228/11/4 226/10/4
f 227/12/3 231/14/3 232/15/3 228/11/3
f 231/14/2 229/17/2 230/16/2 232/15/2
f 229/17/5 225/8/5 226/7/5 230/16/5
f 227/19/1 225/22/1 229/17/1 231/14/1
f 232/15/6 230/16/6 226/3/6 228/2/6
s 0
usemtl shelf
f 97/23/3 99/26/3 100/25/3 98/24/3
f 101/23/3 103/26/3 104/25/3 102/24/3
f 105/23/3 107/26/3 108/25/3 106/24/3
f 109/23/3 111/26/3 112/25/3 110/24/3
f 113/23/3 115/26/3 116/25/3 114/24/3
f 117/23/3 119/26/3 120/25/3 118/24/3
usemtl bottom_loo
f 129/23/7 131/26/7 132/25/7 130/24/7
usemtl side_logo
f 213/23/2 215/26/2 216/25/2 214/24/2
f 217/23/4 219/26/4 220/25/4 218/24/4
usemtl TW_LOGO
f 221/23/3 223/26/3 224/25/3 222/24/3
